<svg xmlns="http://www.w3.org/2000/svg" width="800" height="800" viewBox="0 0 800 800">
  <defs>
    <linearGradient id="g" x1="0" y1="0" x2="1" y2="1"><stop offset="0" stop-color="#8338ec"/><stop offset="1" stop-color="#00d4ff"/></linearGradient>
    <radialGradient id="bg" cx=".5" cy=".4" r=".7"><stop offset="0" stop-color="#1b2257"/><stop offset="1" stop-color="#070a1c"/></radialGradient>
  </defs>
  <rect width="800" height="800" fill="url(#bg)"/>
  <circle cx="400" cy="400" r="300" fill="none" stroke="url(#g)" stroke-width="14"/>
  <g stroke="#fff" stroke-opacity=".35" stroke-width="4"><line x1="730" y1="400" x2="760" y2="400"/><line x1="728.1922254715303" y1="434.49439287832564" x2="743.1100539020542" y2="436.06231982734045"/><line x1="722.7887082421558" y1="468.6108579698606" x2="737.460922253163" y2="471.72953333212695"/><line x1="713.8486503774006" y1="501.97560814373264" x2="728.114498121828" y2="506.61086305935686"/><line x1="701.4700010220583" y1="534.223092215014" x2="715.1731828866973" y2="540.324141861151"/><line x1="685.7883832488648" y1="565" x2="711.7691453623979" y2="580"/><line x1="666.9756081437326" y1="593.9691332565161" x2="679.1108630593569" y2="602.7859120409032"/><line x1="645.2377924075402" y1="620.8131000984232" x2="656.384964789701" y2="630.8500591938061"/><line x1="620.8131000984232" y1="645.2377924075402" x2="630.8500591938061" y2="656.384964789701"/><line x1="593.9691332565161" y1="666.9756081437326" x2="602.7859120409032" y2="679.1108630593569"/><line x1="565" y1="685.7883832488648" x2="580" y2="711.7691453623979"/><line x1="534.2230922150142" y1="701.4700010220583" x2="540.3241418611511" y2="715.1731828866973"/><line x1="501.97560814373264" y1="713.8486503774006" x2="506.61086305935686" y2="728.114498121828"/><line x1="468.61085796986055" y1="722.7887082421558" x2="471.72953333212695" y2="737.460922253163"/><line x1="434.49439287832564" y1="728.1922254715303" x2="436.06231982734045" y2="743.1100539020542"/><line x1="400" y1="730" x2="400" y2="760"/><line x1="365.5056071216744" y1="728.1922254715303" x2="363.9376801726596" y2="743.1100539020543"/><line x1="331.3891420301395" y1="722.7887082421558" x2="328.2704666678731" y2="737.460922253163"/><line x1="298.02439185626736" y1="713.8486503774006" x2="293.3891369406432" y2="728.114498121828"/><line x1="265.77690778498595" y1="701.4700010220583" x2="259.675858138849" y2="715.1731828866973"/><line x1="235.00000000000009" y1="685.7883832488648" x2="220.00000000000009" y2="711.7691453623979"/><line x1="206.0308667434839" y1="666.9756081437326" x2="197.21408795909682" y2="679.1108630593569"/><line x1="179.18689990157688" y1="645.2377924075402" x2="169.14994080619402" y2="656.3849647897011"/><line x1="154.76220759245987" y1="620.8131000984231" x2="143.61503521029897" y2="630.850059193806"/><line x1="133.02439185626736" y1="593.9691332565162" x2="120.88913694064314" y2="602.7859120409032"/><line x1="114.21161675113524" y1="565" x2="88.23085463760208" y2="580"/><line x1="98.52999897794166" y1="534.223092215014" x2="84.82681711330264" y2="540.324141861151"/><line x1="86.15134962259935" y1="501.97560814373264" x2="71.88550187817202" y2="506.6108630593569"/><line x1="77.21129175784415" y1="468.6108579698606" x2="62.53907774683705" y2="471.72953333212695"/><line x1="71.80777452846979" y1="434.49439287832575" x2="56.88994609794571" y2="436.06231982734056"/><line x1="70" y1="400.00000000000006" x2="40" y2="400.00000000000006"/><line x1="71.80777452846979" y1="365.50560712167436" x2="56.88994609794571" y2="363.93768017265955"/><line x1="77.21129175784415" y1="331.3891420301395" x2="62.53907774683705" y2="328.2704666678731"/><line x1="86.15134962259935" y1="298.02439185626724" x2="71.88550187817202" y2="293.389136940643"/><line x1="98.52999897794166" y1="265.77690778498607" x2="84.82681711330264" y2="259.6758581388491"/><line x1="114.21161675113524" y1="234.99999999999997" x2="88.23085463760208" y2="219.99999999999997"/><line x1="133.02439185626736" y1="206.0308667434839" x2="120.88913694064314" y2="197.21408795909682"/><line x1="154.7622075924599" y1="179.1868999015768" x2="143.61503521029897" y2="169.1499408061939"/><line x1="179.1868999015767" y1="154.76220759245996" x2="169.14994080619383" y2="143.61503521029908"/><line x1="206.03086674348384" y1="133.02439185626736" x2="197.21408795909673" y2="120.88913694064314"/><line x1="234.99999999999986" y1="114.2116167511353" x2="219.99999999999983" y2="88.23085463760214"/><line x1="265.77690778498595" y1="98.52999897794166" x2="259.675858138849" y2="84.82681711330264"/><line x1="298.0243918562673" y1="86.15134962259935" x2="293.3891369406431" y2="71.88550187817202"/><line x1="331.3891420301393" y1="77.21129175784415" x2="328.2704666678729" y2="62.53907774683705"/><line x1="365.5056071216741" y1="71.80777452846979" x2="363.93768017265927" y2="56.88994609794571"/><line x1="399.99999999999994" y1="70" x2="399.99999999999994" y2="40"/><line x1="434.49439287832575" y1="71.80777452846979" x2="436.0623198273406" y2="56.88994609794571"/><line x1="468.6108579698606" y1="77.21129175784415" x2="471.729533332127" y2="62.53907774683705"/><line x1="501.9756081437326" y1="86.1513496225993" x2="506.6108630593568" y2="71.88550187817202"/><line x1="534.2230922150139" y1="98.52999897794166" x2="540.3241418611509" y2="84.82681711330264"/><line x1="565" y1="114.21161675113524" x2="580" y2="88.23085463760208"/><line x1="593.9691332565161" y1="133.0243918562673" x2="602.7859120409032" y2="120.88913694064308"/><line x1="620.8131000984233" y1="154.76220759245996" x2="630.8500591938061" y2="143.61503521029908"/><line x1="645.2377924075399" y1="179.1868999015766" x2="656.3849647897008" y2="169.1499408061937"/><line x1="666.9756081437326" y1="206.03086674348378" x2="679.1108630593569" y2="197.2140879590967"/><line x1="685.7883832488646" y1="234.99999999999986" x2="711.7691453623978" y2="219.99999999999983"/><line x1="701.4700010220583" y1="265.77690778498595" x2="715.1731828866973" y2="259.675858138849"/><line x1="713.8486503774006" y1="298.0243918562673" x2="728.114498121828" y2="293.3891369406431"/><line x1="722.7887082421558" y1="331.3891420301392" x2="737.460922253163" y2="328.2704666678728"/><line x1="728.1922254715303" y1="365.5056071216741" x2="743.1100539020542" y2="363.93768017265927"/></g>
  <text x="400" y="440" text-anchor="middle" fill="#fff" font-family="system-ui, -apple-system, Segoe UI, sans-serif" font-weight="700" font-size="150">DA</text>
  <text x="400" y="540" text-anchor="middle" fill="#8338ec" font-family="ui-monospace, Menlo, monospace" font-size="34" letter-spacing="6">SAMPLE</text>
</svg>